<svg width="24" height="24" viewBox="0 0 24 24" fill="none" xmlns="http://www.w3.org/2000/svg">
<g clip-path="url(#clip0)">
<path d="M12.0001 11.4962C14.1695 11.4962 15.9344 9.73151 15.9344 7.56241C15.9344 5.39332 14.1695 3.62866 12.0001 3.62866C9.83073 3.62866 8.0658 5.39332 8.0658 7.56241C8.0658 9.73151 9.83073 11.4962 12.0001 11.4962ZM12.0001 5.03472C13.3941 5.03472 14.5282 6.16868 14.5282 7.56241C14.5282 8.95619 13.3941 10.0901 12.0001 10.0901C10.6061 10.0901 9.47205 8.95619 9.47205 7.56241C9.47205 6.16868 10.6061 5.03472 12.0001 5.03472Z" fill="white"/>
<path d="M7.71619 14.6311C8.78189 16.0738 8.35373 15.5128 11.4233 19.8953C11.7023 20.2952 12.2956 20.2971 12.5762 19.896C15.6597 15.4926 15.2355 16.0503 16.2838 14.6311C17.3458 13.1933 18.444 11.7067 19.0457 9.9645C19.9167 7.44258 19.5402 4.94728 17.9857 2.93822C17.9857 2.93822 17.9857 2.93817 17.9856 2.93817C16.5616 1.09838 14.324 0 12 0C9.67598 0 7.43836 1.09838 6.01434 2.93827C4.45983 4.94733 4.08333 7.44267 4.95436 9.96459C5.55605 11.7067 6.65423 13.1934 7.71619 14.6311ZM7.1265 3.7987C8.28609 2.30053 10.108 1.40606 12 1.40606C13.892 1.40606 15.7139 2.30053 16.8735 3.7987L16.8734 3.79866C18.1281 5.42016 18.4275 7.44694 17.7165 9.50559C17.1849 11.0444 16.1518 12.4431 15.1526 13.7958C14.3747 14.8489 14.6075 14.5268 12 18.2645C9.3952 14.5305 9.62508 14.8486 8.84737 13.7958C7.84823 12.4431 6.81506 11.0444 6.28355 9.50559C5.57255 7.44689 5.87189 5.42016 7.1265 3.7987Z" fill="white"/>
<path d="M8.29372 17.6797C8.08635 17.3515 7.6521 17.2534 7.32379 17.4608L5.32457 18.7235C4.88844 18.9989 4.88802 19.6365 5.32457 19.9122L11.6246 23.8914C11.8539 24.0363 12.1462 24.0362 12.3755 23.8914L18.6755 19.9122C19.1117 19.6368 19.1121 18.9992 18.6755 18.7235L16.6763 17.4608C16.3479 17.2534 15.9137 17.3515 15.7064 17.6797C15.499 18.008 15.597 18.4422 15.9253 18.6496L16.9835 19.3179L12 22.4654L7.01661 19.3179L8.07477 18.6496C8.40308 18.4422 8.5011 18.008 8.29372 17.6797Z" fill="white"/>
</g>
<defs>
<clipPath id="clip0">
<rect width="24" height="24" fill="white"/>
</clipPath>
</defs>
</svg>
