<svg width="24" height="24" viewBox="0 0 24 24" fill="none" xmlns="http://www.w3.org/2000/svg">
<g clip-path="url(#clip0)">
<path d="M23.7636 0.061608C23.6174 -0.0218295 23.4376 -0.0204233 23.2927 0.0652642L14.7027 5.14483C14.4798 5.27659 14.406 5.56403 14.5378 5.78687C14.6695 6.00967 14.9569 6.0835 15.1798 5.95178L21.343 2.3073L9.86305 14.2188L4.15329 12.472L11.6048 8.06575C11.8276 7.93394 11.9015 7.6465 11.7697 7.42366C11.638 7.20086 11.3505 7.12694 11.1276 7.25875L2.76143 12.2059C2.60159 12.3004 2.51257 12.4804 2.53456 12.6648C2.55654 12.8493 2.68531 13.0033 2.86287 13.0577L9.68174 15.1438L12.69 20.6194C12.6932 20.6251 12.6964 20.6298 12.6997 20.6341C12.7499 20.7178 12.8252 20.7862 12.919 20.8257C12.9778 20.8504 13.0395 20.8624 13.1008 20.8624C13.2209 20.8624 13.3392 20.8162 13.4285 20.7289L16.8876 17.3483L23.3941 19.3389C23.4391 19.3526 23.4853 19.3594 23.5313 19.3594C23.6304 19.3594 23.7284 19.3279 23.8101 19.2675C23.9296 19.1791 24.0001 19.0392 24.0001 18.8906V0.468764C24.0001 0.300436 23.9098 0.144999 23.7636 0.061608ZM12.7156 15.4327C12.6613 15.5111 12.6322 15.6042 12.6322 15.6996V18.567L10.578 14.828L19.668 5.39626L12.7156 15.4327ZM13.5697 19.2801V16.3332L15.8661 17.0358L13.5697 19.2801ZM23.0626 18.257L13.8516 15.4391L23.0626 2.14239V18.257Z" fill="white"/>
<path d="M7.70736 16.2928C7.52426 16.1098 7.22754 16.1098 7.0444 16.2928L2.66853 20.6687C2.48549 20.8517 2.48549 21.1485 2.66853 21.3316C2.76013 21.4231 2.88008 21.4689 3.00003 21.4689C3.11999 21.4689 3.23994 21.4231 3.33149 21.3316L7.70736 16.9557C7.8904 16.7727 7.8904 16.4759 7.70736 16.2928Z" fill="white"/>
<path d="M1.87832 22.1216C1.69522 21.9386 1.3985 21.9386 1.21541 22.1216L0.137285 23.1997C-0.0457617 23.3828 -0.0457617 23.6796 0.137285 23.8627C0.228832 23.9542 0.348785 23.9999 0.468738 23.9999C0.588691 23.9999 0.708645 23.9541 0.800191 23.8626L1.87832 22.7845C2.06136 22.6015 2.06136 22.3047 1.87832 22.1216Z" fill="white"/>
<path d="M6.68671 23.1723C6.59957 23.0851 6.47863 23.0349 6.35535 23.0349C6.23155 23.0349 6.11113 23.0851 6.02394 23.1723C5.93675 23.2594 5.8866 23.3799 5.8866 23.5037C5.8866 23.6269 5.93671 23.7479 6.02394 23.8351C6.11113 23.9223 6.23207 23.9724 6.35535 23.9724C6.47863 23.9724 6.59957 23.9223 6.68671 23.8351C6.77389 23.7479 6.8241 23.6269 6.8241 23.5037C6.8241 23.3799 6.77394 23.2594 6.68671 23.1723Z" fill="white"/>
<path d="M10.1744 19.6844C9.99142 19.5014 9.6947 19.5014 9.51146 19.6844L7.19368 22.0021C7.01063 22.1852 7.01063 22.482 7.19368 22.6651C7.28523 22.7566 7.40518 22.8023 7.52513 22.8023C7.64509 22.8023 7.76504 22.7566 7.85659 22.6651L10.1744 20.3473C10.3574 20.1643 10.3574 19.8675 10.1744 19.6844Z" fill="white"/>
<path d="M18.1737 19.5066C17.9906 19.3236 17.6939 19.3236 17.5108 19.5066L15.1867 21.8307C15.0037 22.0137 15.0037 22.3106 15.1867 22.4936C15.2783 22.5851 15.3982 22.6309 15.5182 22.6309C15.6381 22.6309 15.7581 22.5851 15.8496 22.4936L18.1737 20.1696C18.3567 19.9865 18.3567 19.6897 18.1737 19.5066Z" fill="white"/>
<path d="M13.2892 6.38954C13.202 6.30235 13.081 6.2522 12.9578 6.2522C12.8345 6.2522 12.7135 6.30235 12.6264 6.38954C12.5392 6.47673 12.489 6.59767 12.489 6.72142C12.489 6.8447 12.5392 6.96517 12.6264 7.05235C12.7135 7.14001 12.8345 7.1897 12.9578 7.1897C13.081 7.1897 13.202 7.14001 13.2892 7.05235C13.3763 6.96517 13.4265 6.8447 13.4265 6.72142C13.4265 6.59767 13.3764 6.47673 13.2892 6.38954Z" fill="white"/>
</g>
<defs>
<clipPath id="clip0">
<rect width="24" height="24" fill="white"/>
</clipPath>
</defs>
</svg>
