<svg width="12" height="10" viewBox="0 0 12 10" fill="none" xmlns="http://www.w3.org/2000/svg">
<path d="M9.33358 4.34638L3.99343 0.150626C3.86992 0.0535048 3.70504 0 3.52924 0C3.35343 0 3.18856 0.0535048 3.06504 0.150626L2.67178 0.459543C2.41588 0.660838 2.41588 0.987999 2.67178 1.18899L7.15604 4.71233L2.6668 8.23958C2.54329 8.33671 2.4751 8.46618 2.4751 8.60423C2.4751 8.74244 2.54329 8.87191 2.6668 8.96911L3.06007 9.27795C3.18368 9.37507 3.34846 9.42857 3.52426 9.42857C3.70006 9.42857 3.86494 9.37507 3.98845 9.27795L9.33358 5.07836C9.45738 4.98093 9.52538 4.85085 9.52499 4.71256C9.52538 4.57374 9.45738 4.44373 9.33358 4.34638Z" fill="white"/>
</svg>
