<svg width="24" height="24" viewBox="0 0 24 24" fill="none" xmlns="http://www.w3.org/2000/svg">
<g clip-path="url(#clip0)">
<path d="M12 21C7.864 21 4.5 17.636 4.5 13.5C4.5 9.364 7.864 6 12 6C16.136 6 19.5 9.364 19.5 13.5C19.5 17.636 16.136 21 12 21ZM12 7C8.416 7 5.5 9.916 5.5 13.5C5.5 17.084 8.416 20 12 20C15.584 20 18.5 17.084 18.5 13.5C18.5 9.916 15.584 7 12 7Z" fill="white"/>
<path d="M21.4999 24C21.2239 24 20.9999 23.776 20.9999 23.5V19.5C20.9999 17.949 20.0009 16.602 18.5149 16.148C18.2499 16.068 18.1019 15.788 18.1819 15.524C18.2629 15.261 18.5449 15.11 18.8059 15.192C20.7169 15.774 21.9999 17.506 21.9999 19.5V23.5C21.9999 23.776 21.7759 24 21.4999 24Z" fill="white"/>
<path d="M2.5 24C2.224 24 2 23.776 2 23.5V19.5C2 17.506 3.283 15.774 5.194 15.192C5.458 15.109 5.737 15.26 5.818 15.524C5.898 15.788 5.75 16.068 5.485 16.148C3.999 16.602 3 17.949 3 19.5V23.5C3 23.776 2.776 24 2.5 24Z" fill="white"/>
<path d="M13.5001 6.99999C13.2241 6.99999 13.0001 6.77599 13.0001 6.49999V3.5C13.0001 3.224 13.2241 3 13.5001 3C13.7761 3 14.0001 3.224 14.0001 3.5V6.49999C14.0001 6.77599 13.7761 6.99999 13.5001 6.99999Z" fill="white"/>
<path d="M10.5 6.99999C10.224 6.99999 10 6.77599 10 6.49999V3.5C10 3.224 10.224 3 10.5 3C10.776 3 11 3.224 11 3.5V6.49999C11 6.77599 10.776 6.99999 10.5 6.99999Z" fill="white"/>
<path d="M23.5 24H0.5C0.224 24 0 23.776 0 23.5C0 23.224 0.224 23 0.5 23H23.5C23.776 23 24 23.224 24 23.5C24 23.776 23.776 24 23.5 24Z" fill="white"/>
<path d="M16.5 4H7.5C6.673 4 6 3.327 6 2.5V1.5C6 0.673 6.673 0 7.5 0H16.5C17.327 0 18 0.673 18 1.5V2.5C18 3.327 17.327 4 16.5 4ZM7.5 1C7.225 1 7 1.224 7 1.5V2.5C7 2.776 7.225 3 7.5 3H16.5C16.775 3 17 2.776 17 2.5V1.5C17 1.224 16.775 1 16.5 1H7.5Z" fill="white"/>
<path d="M20.9999 5C20.7239 5 20.4999 4.776 20.4999 4.5V4C20.4999 3.173 19.8269 2.5 18.9999 2.5H17.4999C17.2239 2.5 16.9999 2.276 16.9999 2C16.9999 1.724 17.2239 1.5 17.4999 1.5H18.9999C20.3789 1.5 21.4999 2.622 21.4999 4V4.5C21.4999 4.776 21.2759 5 20.9999 5Z" fill="white"/>
<path d="M3 5C2.724 5 2.5 4.776 2.5 4.5V4C2.5 2.622 3.621 1.5 5 1.5H6.5C6.776 1.5 7 1.724 7 2C7 2.276 6.776 2.5 6.5 2.5H5C4.173 2.5 3.5 3.173 3.5 4V4.5C3.5 4.776 3.276 5 3 5Z" fill="white"/>
<path d="M23.5 7.99999H18.5C18.224 7.99999 18 7.77599 18 7.49999V6.5C18 5.122 19.121 4 20.5 4H21.5C22.879 4 24 5.122 24 6.5V7.49999C24 7.77599 23.776 7.99999 23.5 7.99999ZM19 6.99999H23V6.5C23 5.673 22.327 5 21.5 5H20.5C19.673 5 19 5.673 19 6.5V6.99999Z" fill="white"/>
<path d="M5.5 7.99999H0.5C0.224 7.99999 0 7.77599 0 7.49999V6.5C0 5.122 1.121 4 2.5 4H3.5C4.879 4 6 5.122 6 6.5V7.49999C6 7.77599 5.776 7.99999 5.5 7.99999ZM1 6.99999H5V6.5C5 5.673 4.327 5 3.5 5H2.5C1.673 5 1 5.673 1 6.5V6.99999Z" fill="white"/>
<path d="M12 10C12.4142 10 12.75 9.66421 12.75 9.25C12.75 8.83579 12.4142 8.5 12 8.5C11.5858 8.5 11.25 8.83579 11.25 9.25C11.25 9.66421 11.5858 10 12 10Z" fill="white"/>
<path d="M12 18.5C12.4142 18.5 12.75 18.1642 12.75 17.75C12.75 17.3358 12.4142 17 12 17C11.5858 17 11.25 17.3358 11.25 17.75C11.25 18.1642 11.5858 18.5 12 18.5Z" fill="white"/>
<path d="M16.2499 14.25C16.6641 14.25 16.9999 13.9142 16.9999 13.5C16.9999 13.0858 16.6641 12.75 16.2499 12.75C15.8357 12.75 15.4999 13.0858 15.4999 13.5C15.4999 13.9142 15.8357 14.25 16.2499 14.25Z" fill="white"/>
<path d="M7.75 14.25C8.16421 14.25 8.5 13.9142 8.5 13.5C8.5 13.0858 8.16421 12.75 7.75 12.75C7.33579 12.75 7 13.0858 7 13.5C7 13.9142 7.33579 14.25 7.75 14.25Z" fill="white"/>
<path d="M15.5329 11.0257C15.8258 10.7328 15.8258 10.2579 15.5329 9.96503C15.24 9.67213 14.7651 9.67213 14.4722 9.96503C14.1793 10.2579 14.1793 10.7328 14.4722 11.0257C14.7651 11.3186 15.24 11.3186 15.5329 11.0257Z" fill="white"/>
<path d="M9.52287 17.035C9.81577 16.7421 9.81577 16.2672 9.52287 15.9743C9.22998 15.6814 8.75511 15.6814 8.46221 15.9743C8.16932 16.2672 8.16932 16.7421 8.46221 17.035C8.75511 17.3279 9.22998 17.3279 9.52287 17.035Z" fill="white"/>
<path d="M15.5321 17.0357C15.825 16.7428 15.825 16.2679 15.5321 15.975C15.2393 15.6821 14.7644 15.6821 14.4715 15.975C14.1786 16.2679 14.1786 16.7428 14.4715 17.0357C14.7644 17.3286 15.2393 17.3286 15.5321 17.0357Z" fill="white"/>
<path d="M9.52397 11.025C9.81686 10.7321 9.81686 10.2572 9.52397 9.9643C9.23108 9.6714 8.75621 9.6714 8.46331 9.9643C8.17042 10.2572 8.17042 10.7321 8.46331 11.025C8.75621 11.3179 9.23108 11.3179 9.52397 11.025Z" fill="white"/>
</g>
<defs>
<clipPath id="clip0">
<rect width="24" height="24" fill="white"/>
</clipPath>
</defs>
</svg>
