<svg width="34" height="34" viewBox="0 0 34 34" fill="none" xmlns="http://www.w3.org/2000/svg">
<path d="M2.839 31.1666L4.75433 24.1286C3.49228 21.9652 2.82922 19.5046 2.83333 17C2.83333 9.17573 9.17575 2.83331 17 2.83331C24.8243 2.83331 31.1667 9.17573 31.1667 17C31.1667 24.8242 24.8243 31.1666 17 31.1666C14.4964 31.1707 12.0369 30.5081 9.87417 29.2471L2.839 31.1666ZM11.8872 10.353C11.7043 10.3643 11.5255 10.4125 11.3617 10.4946C11.208 10.5817 11.0677 10.6905 10.9452 10.8176C10.7752 10.9777 10.6788 11.1166 10.5754 11.2511C10.0518 11.9326 9.7702 12.769 9.775 13.6283C9.77783 14.3225 9.95917 14.9982 10.2425 15.6301C10.8219 16.9079 11.7753 18.2608 13.0347 19.5146C13.3379 19.8163 13.634 20.1195 13.9528 20.4014C15.5159 21.7776 17.3786 22.7701 19.3928 23.2999L20.1988 23.4231C20.4609 23.4373 20.723 23.4175 20.9865 23.4047C21.3991 23.3834 21.802 23.2717 22.1666 23.0775C22.3521 22.9819 22.5332 22.8779 22.7092 22.7658C22.7092 22.7658 22.7701 22.7261 22.8863 22.6383C23.0775 22.4966 23.1951 22.3961 23.3538 22.2303C23.4713 22.1085 23.5733 21.9654 23.6513 21.8025C23.7618 21.5716 23.8723 21.131 23.9176 20.7641C23.9516 20.4836 23.9417 20.3306 23.9374 20.2356C23.9318 20.0841 23.8057 19.9268 23.6683 19.8602L22.8438 19.4905C22.8438 19.4905 21.6113 18.9536 20.859 18.6107C20.7797 18.5762 20.6947 18.5565 20.6083 18.5526C20.5113 18.5427 20.4134 18.5536 20.321 18.5846C20.2287 18.6157 20.144 18.6661 20.0728 18.7326V18.7297C20.0657 18.7297 19.9708 18.8105 18.9465 20.0515C18.8877 20.1305 18.8067 20.1902 18.7139 20.223C18.621 20.2558 18.5205 20.2602 18.4252 20.2356C18.3329 20.211 18.2424 20.1797 18.1546 20.1421C17.9789 20.0685 17.918 20.0401 17.7976 19.9877L17.7905 19.9849C16.98 19.631 16.2297 19.1531 15.5663 18.5682C15.3878 18.4124 15.2221 18.2424 15.0521 18.0781C14.4947 17.5443 14.009 16.9405 13.6071 16.2817L13.5235 16.1471C13.4635 16.0567 13.4149 15.9592 13.379 15.8567C13.3252 15.6485 13.4654 15.4813 13.4654 15.4813C13.4654 15.4813 13.8097 15.1045 13.9698 14.9005C14.103 14.7309 14.2274 14.5546 14.3423 14.3721C14.5095 14.1029 14.5619 13.8266 14.4741 13.6127C14.0774 12.6437 13.6666 11.679 13.2444 10.7213C13.1608 10.5315 12.9129 10.3955 12.6877 10.3686C12.6112 10.3601 12.5347 10.3516 12.4582 10.3459C12.2679 10.3364 12.0773 10.3383 11.8872 10.3516V10.353Z" fill="#25D366"/>
</svg>
