<svg width="64" height="64" viewBox="0 0 64 64" fill="none" xmlns="http://www.w3.org/2000/svg">
<path d="M32 64C49.6731 64 64 49.6731 64 32C64 14.3269 49.6731 0 32 0C14.3269 0 0 14.3269 0 32C0 49.6731 14.3269 64 32 64Z" fill="#25D366"/>
<path d="M14.0801 50.0063L16.6113 40.7563C15.0467 38.0437 14.2249 34.9665 14.2288 31.835C14.2288 21.9963 22.2376 13.9913 32.0738 13.9913C34.4186 13.9916 36.7403 14.4539 38.9064 15.3518C41.0724 16.2497 43.0403 17.5656 44.6976 19.2243C46.3549 20.883 47.6692 22.852 48.5652 25.0188C49.4613 27.1856 49.9217 29.5077 49.9201 31.8525C49.9201 41.6913 41.9101 49.6975 32.0751 49.6975H32.0676C29.0882 49.6973 26.1564 48.9504 23.5401 47.525L14.0801 50.0063ZM23.9776 44.2938L24.5201 44.615C26.8054 45.9686 29.4127 46.6827 32.0688 46.6825H32.0751C40.2501 46.6825 46.9038 40.0288 46.9076 31.85C46.9077 29.5519 46.3738 27.2852 45.348 25.2288C44.3222 23.1723 42.8326 21.3823 40.9967 20C39.1608 18.6177 37.0288 17.681 34.769 17.2636C32.5091 16.8462 30.1831 16.9596 27.9746 17.5949C25.7661 18.2303 23.7354 19.3701 22.0427 20.9245C20.35 22.4788 19.0417 24.4053 18.2209 26.5518C17.4001 28.6983 17.0893 31.0062 17.313 33.2934C17.5368 35.5806 18.2889 37.7845 19.5101 39.7313L19.8626 40.2925L18.3626 45.7663L23.9776 44.2938Z" fill="white"/>
<path fill-rule="evenodd" clip-rule="evenodd" d="M41.0651 36.095C40.9539 35.9087 40.6564 35.7975 40.2101 35.5737C39.7639 35.35 37.5726 34.2725 37.1639 34.125C36.7551 33.9775 36.4576 33.9012 36.1639 34.3487C35.8701 34.7962 35.0126 35.8 34.7526 36.0987C34.4926 36.3975 34.2326 36.4337 33.7864 36.21C33.3401 35.9862 31.9039 35.5162 30.2014 33.9962C28.8751 32.8137 27.9801 31.3537 27.7214 30.9075C27.4626 30.4612 27.6939 30.22 27.9164 29.9975C28.1176 29.7975 28.3626 29.4762 28.5851 29.2162C28.7689 28.9888 28.9192 28.7363 29.0314 28.4662C29.0905 28.3431 29.118 28.2073 29.1114 28.0709C29.1049 27.9345 29.0645 27.8019 28.9939 27.685C28.8826 27.4612 27.9939 25.2675 27.6189 24.375C27.2576 23.5 26.8889 23.625 26.6189 23.6087C26.3489 23.5925 26.0614 23.5937 25.7639 23.5937C25.538 23.5997 25.3158 23.6523 25.1112 23.7482C24.9067 23.8442 24.7241 23.9814 24.5751 24.1512C24.1664 24.5975 23.0151 25.6762 23.0151 27.8712C23.0151 30.0662 24.6126 32.1862 24.8364 32.4837C25.0601 32.7812 27.9801 37.285 32.4539 39.2162C33.2842 39.5743 34.1329 39.888 34.9964 40.1562C35.9058 40.4325 36.8671 40.4929 37.8039 40.3325C38.6614 40.2075 40.4426 39.2537 40.8139 38.2075C41.1851 37.1612 41.1764 36.2812 41.0651 36.095Z" fill="white"/>
</svg>
