<svg width="28" height="28" viewBox="0 0 28 28" fill="none" xmlns="http://www.w3.org/2000/svg">
<path d="M27.412 7.23712C27.2494 6.65589 26.9395 6.12649 26.5123 5.70017C26.085 5.27386 25.555 4.96509 24.9734 4.80375C22.7903 4.22012 14.014 4.22012 14.014 4.22012C14.014 4.22012 5.25438 4.20612 3.0485 4.80375C2.46785 4.9658 1.93882 5.2749 1.51255 5.70117C1.08628 6.12744 0.777177 6.65647 0.615127 7.23712C0.200552 9.47206 -0.00363246 11.7409 0.00525225 14.014C0.00120704 16.2761 0.20536 18.5338 0.615127 20.7585C0.777702 21.3395 1.08689 21.8689 1.51302 22.2959C1.93914 22.723 2.46789 23.0333 3.0485 23.1971C5.23163 23.7807 14.014 23.7807 14.014 23.7807C14.014 23.7807 22.7684 23.7807 24.9734 23.1971C25.5549 23.034 26.0847 22.724 26.5118 22.2969C26.9389 21.8698 27.2489 21.34 27.412 20.7585C27.8136 18.5351 28.0096 16.2741 27.9956 14.014C28.0096 11.739 27.818 9.4745 27.412 7.23712ZM11.2105 18.2026V9.807L18.5159 14.014L11.2105 18.2026Z" fill="#FF0000"/>
</svg>
